<svg width="120" height="120" viewBox="0 0 120 120" fill="none" xmlns="http://www.w3.org/2000/svg">
  <defs>
    <linearGradient id="iq-gold" x1="18" y1="14" x2="102" y2="106" gradientUnits="userSpaceOnUse">
      <stop stop-color="#e8d49a"/>
      <stop offset="0.45" stop-color="#c9a962"/>
      <stop offset="1" stop-color="#8f6b24"/>
    </linearGradient>
    <linearGradient id="iq-accent" x1="30" y1="28" x2="30" y2="92" gradientUnits="userSpaceOnUse">
      <stop stop-color="#c9a962" stop-opacity="0"/>
      <stop offset="0.2" stop-color="#c9a962"/>
      <stop offset="0.8" stop-color="#c9a962"/>
      <stop offset="1" stop-color="#c9a962" stop-opacity="0"/>
    </linearGradient>
    <radialGradient id="iq-sheen" cx="50%" cy="0%" r="85%">
      <stop stop-color="#ffffff" stop-opacity="0.08"/>
      <stop offset="1" stop-color="#ffffff" stop-opacity="0"/>
    </radialGradient>
    <clipPath id="iq-clip">
      <rect width="120" height="120" rx="26"/>
    </clipPath>
  </defs>
  <g clip-path="url(#iq-clip)">
    <rect width="120" height="120" rx="26" fill="#050506"/>
    <rect width="120" height="120" fill="url(#iq-sheen)"/>
    <rect x="1" y="1" width="118" height="118" rx="25" stroke="url(#iq-gold)" stroke-opacity="0.45"/>
    <rect x="28" y="30" width="2" height="60" fill="url(#iq-accent)"/>
    <path d="M17.25 19.875C20.0833 20.2083 22.4583 20.4583 24.375 20.625C26.375 20.7083 28 20.8333 29.25 21C30.75 21.1667 31.9167 21.25 32.75 21.25C33.6667 21.3333 35.0417 21.2917 36.875 21.125C38.4583 20.9583 40.5833 20.75 43.25 20.5C46 20.25 49.5 19.875 53.75 19.375C51.8333 21.0417 50.2917 22.6667 49.125 24.25C48.0417 25.75 47.2083 27.0833 46.625 28.25C45.875 29.6667 45.4167 31 45.25 32.25C44.9167 34.25 44.625 37 44.375 40.5C44.2083 43.9167 44.0417 47.6667 43.875 51.75C43.7083 55.8333 43.625 60.0417 43.625 64.375C43.625 68.7083 43.6667 72.8333 43.75 76.75C43.9167 80.5833 44.1667 84 44.5 87C44.9167 90 45.4167 92.1667 46 93.5C46.8333 95 47.7083 96.5 48.625 98C49.4583 99.25 50.4583 100.542 51.625 101.875C52.7917 103.208 54.125 104.292 55.625 105.125C50.7083 104.875 46.7917 104.75 43.875 104.75H39.375C38.0417 104.75 36.3333 104.833 34.25 105C32.5 105.167 30.2917 105.333 27.625 105.5C24.9583 105.667 21.75 105.917 18 106.25C19.9167 104.167 21.4167 102.167 22.5 100.25C23.5833 98.3333 24.4583 96.6667 25.125 95.25C25.875 93.5833 26.375 92 26.625 90.5C26.9583 88.3333 27.2083 85.6667 27.375 82.5C27.625 79.25 27.7917 75.7917 27.875 72.125C27.9583 68.375 27.9583 64.5833 27.875 60.75C27.875 56.8333 27.7917 53.0833 27.625 49.5C27.4583 45.9167 27.2083 42.6667 26.875 39.75C26.625 36.8333 26.2917 34.5 25.875 32.75C25.625 31.6667 25.125 30.4583 24.375 29.125C23.7083 27.9583 22.7917 26.625 21.625 25.125C20.5417 23.5417 19.0833 21.7917 17.25 19.875Z" fill="#f4f2ee"/>
    <path d="M82.44 93.44C79.304 93.44 76.456 93.088 73.896 92.384C71.4 91.744 69.16 90.848 67.176 89.696C66.408 89.248 65.704 88.832 65.064 88.448C64.424 88 63.816 87.552 63.24 87.104L66.312 94.976L65.832 95.648H56.52L49.32 67.904L57.576 65.216L58.728 68.384C59.752 71.264 61.48 73.952 63.912 76.448C66.408 78.88 69.288 80.832 72.552 82.304C75.816 83.776 79.144 84.512 82.536 84.512C86.312 84.512 89.384 83.808 91.752 82.4C94.184 80.928 95.4 78.784 95.4 75.968C95.4 73.728 94.6 71.904 93 70.496C91.464 69.024 89.512 67.84 87.144 66.944C84.776 66.048 81.448 65.024 77.16 63.872C76.904 63.808 76.68 63.744 76.488 63.68C76.296 63.616 76.072 63.552 75.816 63.488C71.144 62.208 67.144 60.832 63.816 59.36C60.488 57.888 57.608 55.744 55.176 52.928C52.744 50.048 51.528 46.368 51.528 41.888C51.528 37.792 52.552 34.368 54.6 31.616C56.648 28.8 59.336 26.72 62.664 25.376C65.992 24.032 69.576 23.36 73.416 23.36C75.208 23.36 76.872 23.488 78.408 23.744C80.008 23.936 81.448 24.224 82.728 24.608C84.008 24.992 85.192 25.44 86.28 25.952C86.856 26.208 87.4 26.496 87.912 26.816C88.424 27.136 88.904 27.456 89.352 27.776L87.24 22.496L87.624 21.92H97.224L103.272 46.784L95.4 49.28L94.92 48.128C93.576 44.928 91.816 42.176 89.64 39.872C87.464 37.504 85.032 35.712 82.344 34.496C79.656 33.28 76.872 32.672 73.992 32.672C70.664 32.672 67.912 33.408 65.736 34.88C63.56 36.288 62.472 38.4 62.472 41.216C62.472 43.456 63.208 45.312 64.68 46.784C66.216 48.256 68.072 49.408 70.248 50.24C72.424 51.072 75.4 52.032 79.176 53.12L80.712 53.504L81.288 53.696C86.6 55.104 90.92 56.512 94.248 57.92C97.64 59.328 100.52 61.408 102.888 64.16C105.32 66.912 106.536 70.528 106.536 75.008C106.536 78.976 105.448 82.368 103.272 85.184C101.096 87.936 98.184 90.016 94.536 91.424C90.888 92.768 86.856 93.44 82.44 93.44Z" fill="url(#iq-gold)"/>
  </g>
</svg>
