<svg width="120" height="120" viewBox="0 0 120 120" fill="none" xmlns="http://www.w3.org/2000/svg">
<g clip-path="url(#clip0_1014_16)">
<rect width="120" height="120" rx="25" fill="white"/>
<mask id="mask0_1014_16" style="mask-type:luminance" maskUnits="userSpaceOnUse" x="0" y="0" width="120" height="120">
<path d="M120 0H0V120H120V0Z" fill="white"/>
</mask>
<g mask="url(#mask0_1014_16)">
<path d="M67.1621 22.3389V90H52.9033V22.3389H67.1621Z" fill="black"/>
<mask id="mask1_1014_16" style="mask-type:luminance" maskUnits="userSpaceOnUse" x="50" y="20" width="20" height="72">
<path d="M70 20H50V92H70V20Z" fill="white"/>
<path d="M67.1621 22.3389V90H52.9033V22.3389H67.1621Z" fill="black"/>
</mask>
<g mask="url(#mask1_1014_16)">
<path d="M67.1621 22.3389H69.1621V20.3389H67.1621V22.3389ZM67.1621 90V92H69.1621V90H67.1621ZM52.9033 90H50.9033V92H52.9033V90ZM52.9033 22.3389V20.3389H50.9033V22.3389H52.9033ZM67.1621 22.3389H65.1621V90H67.1621H69.1621V22.3389H67.1621ZM67.1621 90V88H52.9033V90V92H67.1621V90ZM52.9033 90H54.9033V22.3389H52.9033H50.9033V90H52.9033ZM52.9033 22.3389V24.3389H67.1621V22.3389V20.3389H52.9033V22.3389Z" fill="black"/>
</g>
<path d="M46.0967 90V22.3389H31.8379V78.1934H2.8208V90H46.0967Z" fill="black"/>
<mask id="mask2_1014_16" style="mask-type:luminance" maskUnits="userSpaceOnUse" x="0" y="20" width="49" height="72">
<path d="M49 20H0V92H49V20Z" fill="white"/>
<path d="M46.0967 90V22.3389H31.8379V78.1934H2.8208V90H46.0967Z" fill="black"/>
</mask>
<g mask="url(#mask2_1014_16)">
<path d="M46.0967 90H48.0967V92H46.0967V90ZM46.0967 22.3389V20.3389H48.0967V22.3389H46.0967ZM31.8379 22.3389H29.8379V20.3389H31.8379V22.3389ZM31.8379 78.1934H33.8379V80.1934H31.8379V78.1934ZM2.8208 78.1934H0.820801V76.1934H2.8208V78.1934ZM2.8208 90V92H0.820801V90H2.8208ZM46.0967 90H44.0967V22.3389H46.0967H48.0967V90H46.0967ZM46.0967 22.3389V24.3389H31.8379V22.3389V20.3389H46.0967V22.3389ZM31.8379 22.3389H33.8379V78.1934H31.8379H29.8379V22.3389H31.8379ZM31.8379 78.1934V80.1934H2.8208V78.1934V76.1934H31.8379V78.1934ZM2.8208 78.1934H4.8208V90H2.8208H0.820801V78.1934H2.8208ZM2.8208 90V88H46.0967V90V92H2.8208V90Z" fill="black"/>
</g>
<path d="M73.9033 90V22.3389H88.1621V78.1934H117.179V90H73.9033Z" fill="black"/>
<mask id="mask3_1014_16" style="mask-type:luminance" maskUnits="userSpaceOnUse" x="71" y="20" width="49" height="72">
<path d="M120 20H71V92H120V20Z" fill="white"/>
<path d="M73.9033 90V22.3389H88.1621V78.1934H117.179V90H73.9033Z" fill="black"/>
</mask>
<g mask="url(#mask3_1014_16)">
<path d="M73.9033 90H71.9033V92H73.9033V90ZM73.9033 22.3389V20.3389H71.9033V22.3389H73.9033ZM88.1621 22.3389H90.1621V20.3389H88.1621V22.3389ZM88.1621 78.1934H86.1621V80.1934H88.1621V78.1934ZM117.179 78.1934H119.179V76.1934H117.179V78.1934ZM117.179 90V92H119.179V90H117.179ZM73.9033 90H75.9033V22.3389H73.9033H71.9033V90H73.9033ZM73.9033 22.3389V24.3389H88.1621V22.3389V20.3389H73.9033V22.3389ZM88.1621 22.3389H86.1621V78.1934H88.1621H90.1621V22.3389H88.1621ZM88.1621 78.1934V80.1934H117.179V78.1934V76.1934H88.1621V78.1934ZM117.179 78.1934H115.179V90H117.179H119.179V78.1934H117.179ZM117.179 90V88H73.9033V90V92H117.179V90Z" fill="black"/>
</g>
</g>
</g>
<defs>
<clipPath id="clip0_1014_16">
<rect width="120" height="120" fill="white"/>
</clipPath>
</defs>
</svg>
